<svg width="512" height="512" viewBox="0 0 512 512" xmlns="http://www.w3.org/2000/svg">
  <defs>
    <!-- גרדיאנט רקע אלגנטי -->
    <radialGradient id="bgGradient" cx="50%" cy="30%" r="80%">
      <stop offset="0%" style="stop-color:#F7FAFC;stop-opacity:1" />
      <stop offset="40%" style="stop-color:#EDF2F7;stop-opacity:1" />
      <stop offset="100%" style="stop-color:#E2E8F0;stop-opacity:1" />
    </radialGradient>
    
    <!-- גרדיאנט למשולש מרכזי -->
    <linearGradient id="mainTriangle" x1="0%" y1="0%" x2="100%" y2="100%">
      <stop offset="0%" style="stop-color:#4A5568;stop-opacity:0.9" />
      <stop offset="50%" style="stop-color:#2D3748;stop-opacity:1" />
      <stop offset="100%" style="stop-color:#1A202C;stop-opacity:0.9" />
    </linearGradient>
    
    <!-- גרדיאנט לעיגולים -->
    <linearGradient id="circleGradient" x1="0%" y1="0%" x2="100%" y2="100%">
      <stop offset="0%" style="stop-color:#718096;stop-opacity:0.6" />
      <stop offset="100%" style="stop-color:#4A5568;stop-opacity:0.8" />
    </linearGradient>
    
    <!-- אפקט זוהר -->
    <filter id="glow">
      <feGaussianBlur stdDeviation="3" result="coloredBlur"/>
      <feMerge> 
        <feMergeNode in="coloredBlur"/>
        <feMergeNode in="SourceGraphic"/>
      </feMerge>
    </filter>
  </defs>

  <!-- רקע עם פינות מעוגלות -->
  <rect width="512" height="512" rx="90" ry="90" fill="url(#bgGradient)" stroke="#CBD5E0" stroke-width="2"/>

  <!-- קבוצת צורות מרכזית -->
  <g transform="translate(256, 256)">
    
    <!-- עיגולים קונצנטריים - אורגניים -->
    <circle cx="0" cy="0" r="180" fill="none" stroke="url(#circleGradient)" stroke-width="2" opacity="0.3" stroke-dasharray="5,10"/>
    <circle cx="0" cy="0" r="140" fill="none" stroke="url(#circleGradient)" stroke-width="3" opacity="0.4"/>
    <circle cx="0" cy="0" r="100" fill="none" stroke="url(#circleGradient)" stroke-width="2" opacity="0.6"/>
    
    <!-- משולש מרכזי גדול -->
    <polygon points="0,-80 70,40 -70,40" fill="url(#mainTriangle)" filter="url(#glow)"/>
    
    <!-- משולשים קטנים סביב -->
    <polygon points="0,-160 15,-130 -15,-130" fill="#4A5568" opacity="0.7"/>
    <polygon points="120,60 135,90 105,90" fill="#4A5568" opacity="0.7"/>
    <polygon points="-120,60 -105,90 -135,90" fill="#4A5568" opacity="0.7"/>
    
    <!-- קווי אנרגיה מקרינים -->
    <g opacity="0.5">
      <line x1="0" y1="-200" x2="0" y2="-180" stroke="#2D3748" stroke-width="3" stroke-linecap="round"/>
      <line x1="141" y1="-141" x2="127" y2="-127" stroke="#2D3748" stroke-width="2" stroke-linecap="round"/>
      <line x1="200" y1="0" x2="180" y2="0" stroke="#2D3748" stroke-width="3" stroke-linecap="round"/>
      <line x1="141" y1="141" x2="127" y2="127" stroke="#2D3748" stroke-width="2" stroke-linecap="round"/>
      <line x1="0" y1="200" x2="0" y2="180" stroke="#2D3748" stroke-width="3" stroke-linecap="round"/>
      <line x1="-141" y1="141" x2="-127" y2="127" stroke="#2D3748" stroke-width="2" stroke-linecap="round"/>
      <line x1="-200" y1="0" x2="-180" y2="0" stroke="#2D3748" stroke-width="3" stroke-linecap="round"/>
      <line x1="-141" y1="-141" x2="-127" y2="-127" stroke="#2D3748" stroke-width="2" stroke-linecap="round"/>
    </g>
    
    <!-- נקודות אנרגיה זוהרות -->
    <circle cx="0" cy="-120" r="6" fill="#2D3748" opacity="0.8" filter="url(#glow)"/>
    <circle cx="85" cy="85" r="4" fill="#4A5568" opacity="0.7"/>
    <circle cx="-85" cy="85" r="4" fill="#4A5568" opacity="0.7"/>
    <circle cx="0" cy="120" r="5" fill="#2D3748" opacity="0.8"/>
    
    <!-- סמלים גאומטריים קטנים -->
    <g opacity="0.6">
      <!-- מעיין/ספירלה -->
      <path d="M 60,-60 Q 80,-40 60,-20 Q 40,-40 60,-60" fill="none" stroke="#4A5568" stroke-width="2"/>
      
      <!-- משושה -->
      <polygon points="-60,-70 -45,-85 -30,-70 -30,-55 -45,-40 -60,-55" fill="none" stroke="#4A5568" stroke-width="1.5"/>
      
      <!-- יהלום -->
      <polygon points="0,60 10,75 0,90 -10,75" fill="#4A5568" opacity="0.5"/>
    </g>
    
  </g>
  
  <!-- מסגרת חיצונית אלגנטית -->
  <rect x="20" y="20" width="472" height="472" rx="70" ry="70" fill="none" stroke="#A0AEC0" stroke-width="1" opacity="0.4"/>
  
  <!-- פינות דקורטיביות -->
  <circle cx="90" cy="90" r="3" fill="#4A5568" opacity="0.5"/>
  <circle cx="422" cy="90" r="3" fill="#4A5568" opacity="0.5"/>
  <circle cx="90" cy="422" r="3" fill="#4A5568" opacity="0.5"/>
  <circle cx="422" cy="422" r="3" fill="#4A5568" opacity="0.5"/>
  
</svg>
